HIERARCHY
ROOT hip
{
	OFFSET 0.000000 0.000000 0.000000
	CHANNELS 6 Xposition Yposition Zposition Xrotation Zrotation Yrotation 
	JOINT abdomen
	{
		OFFSET 0.000000 3.422050 0.000000
		CHANNELS 3 Xrotation Zrotation Yrotation 
		JOINT chest
		{
			OFFSET 0.000000 8.486693 -0.684411
			CHANNELS 3 Xrotation Zrotation Yrotation 
			JOINT neck
			{
				OFFSET 0.000000 10.266162 -0.273764
				CHANNELS 3 Xrotation Zrotation Yrotation 
				JOINT head
				{
					OFFSET 0.000000 3.148285 0.000000
					CHANNELS 3 Xrotation Zrotation Yrotation 
					End Site
					{
						OFFSET 0.000000 3.148289 0.000000
					}
				}
			}
			JOINT lCollar
			{
				OFFSET 3.422053 6.707223 -0.821293
				CHANNELS 3 Yrotation Zrotation Xrotation 
				JOINT lShldr
				{
					OFFSET 3.285171 0.000000 0.000000
					CHANNELS 3 Zrotation Yrotation Xrotation 
					JOINT lForeArm
					{
						OFFSET 10.129278 0.000000 0.000000
						CHANNELS 3 Yrotation Zrotation Xrotation 
						JOINT lHand
						{
							OFFSET 8.486692 0.000000 0.000000
							CHANNELS 3 Zrotation Yrotation Xrotation 
							End Site
							{
								OFFSET 4.106464 0.000000 0.000000
							}
						}
					}
				}
			}
			JOINT rCollar
			{
				OFFSET -3.558935 6.707223 -0.821293
				CHANNELS 3 Yrotation Zrotation Xrotation 
				JOINT rShldr
				{
					OFFSET -3.148289 0.000000 0.000000
					CHANNELS 3 Zrotation Yrotation Xrotation 
					JOINT rForeArm
					{
						OFFSET -10.266159 0.000000 0.000000
						CHANNELS 3 Yrotation Zrotation Xrotation 
						JOINT rHand
						{
							OFFSET -8.349810 0.000000 0.000000
							CHANNELS 3 Zrotation Yrotation Xrotation 
							End Site
							{
								OFFSET -4.106464 0.000000 0.000000
							}
						}
					}
				}
			}
		}
	}
	JOINT lThigh
	{
		OFFSET 5.338403 -1.642589 1.368821
		CHANNELS 3 Xrotation Zrotation Yrotation 
		JOINT lShin
		{
			OFFSET -2.053232 -20.121670 0.000000
			CHANNELS 3 Xrotation Zrotation Yrotation 
			JOINT lFoot
			{
				OFFSET 0.000000 -19.300380 -1.231939
				CHANNELS 3 Xrotation Yrotation Zrotation 
				End Site
				{
					OFFSET 0.000000 -2.463878 4.653993
				}
			}
		}
	}
	JOINT rThigh
	{
		OFFSET -5.338403 -1.642589 1.368821
		CHANNELS 3 Xrotation Zrotation Yrotation 
		JOINT rShin
		{
			OFFSET 2.053232 -20.121670 0.000000
			CHANNELS 3 Xrotation Zrotation Yrotation 
			JOINT rFoot
			{
				OFFSET 0.000000 -19.300380 -1.231939
				CHANNELS 3 Xrotation Yrotation Zrotation 
				End Site
				{
					OFFSET 0.000000 -2.463878 4.653993
				}
			}
		}
	}
}
MOTION
Frames: 10
Frame Time: 0.049989
-18.001396 9.611277 -16.238403 90.000000 0.003709 -179.996292 18.981834 -0.741711 -0.605979 4.705850 -0.643682 -0.504778 -12.129970 0.000000 0.000000 -5.872867 -0.011498 7.826334 -2.739855 -6.657429 10.065262 -48.802029 34.777554 -2.371866 -40.877720 -46.067112 41.170067 38.027184 -2.256097 30.805086 2.673841 6.459564 10.020115 48.611946 -34.371552 -2.301496 39.616978 45.169159 42.029720 -37.505634 3.142742 29.760279 -19.472996 13.267071 -0.101461 70.053223 4.349843 0.194372 23.756285 -3.845438 -0.334254 -19.475779 -13.281960 0.094094 70.054108 -4.367846 -0.203309 23.766981 3.837280 0.312002 
-18.001396 9.567223 -16.007317 90.000000 0.003709 -179.996292 18.315605 -0.741830 -0.606169 5.837344 -0.643583 -0.504862 -11.257362 0.000000 0.000000 -5.742826 -0.019724 7.652852 -2.827819 -7.439542 9.289074 -48.409245 34.268223 -2.211694 -40.028225 -45.279785 41.768112 37.748096 -2.079923 30.338604 2.765224 7.255828 9.247827 48.234818 -33.891037 -2.149368 38.883579 44.437626 42.538322 -37.265373 2.907203 29.369331 -19.073673 13.253822 -0.030459 69.057274 4.220867 0.127525 24.382490 -3.761261 -0.236021 -19.076220 -13.267918 0.023359 69.058075 -4.237727 -0.136027 24.392406 3.753267 0.215213 
-18.001396 9.523169 -15.776231 90.000000 0.003709 -179.996292 17.649128 -0.741952 -0.606357 6.970056 -0.643483 -0.504944 -10.382674 0.000000 0.000000 -5.612741 -0.027557 7.479325 -2.926749 -8.221188 8.509425 -48.020386 33.757835 -2.056634 -39.201218 -44.485779 42.342030 37.467545 -1.905980 29.871197 2.867719 8.051611 8.472014 47.861214 -33.409573 -2.001840 38.167767 43.701115 43.028027 -37.023491 2.673255 28.977379 -18.674335 13.240088 0.040451 68.060791 4.090642 0.062893 25.008699 -3.675990 -0.138692 -18.676651 -13.253391 -0.047278 68.061523 -4.106351 -0.070981 25.017838 3.668176 0.119327 
-18.001394 9.479115 -15.545144 90.000000 0.003709 -179.996292 16.982449 -0.742075 -0.606544 8.103766 -0.643380 -0.505024 -9.506001 0.000000 0.000000 -5.482615 -0.034997 7.305760 -3.036740 -9.002072 7.726146 -47.635391 33.246475 -1.906598 -38.395775 -43.685520 42.892719 37.185543 -1.734295 29.402878 2.981421 8.846610 7.692504 47.491039 -32.927204 -1.858831 37.468838 42.959900 43.499443 -36.780014 2.440922 28.584442 -18.275005 13.225879 0.111264 67.063927 3.959224 0.000509 25.634876 -3.589638 -0.042286 -18.277086 -13.238388 -0.117813 67.064598 -3.973775 -0.008203 25.643229 3.582021 0.024359 
-18.001394 9.435061 -15.314057 90.000000 0.003709 -179.996292 16.315611 -0.742201 -0.606730 9.238257 -0.643276 -0.505103 -8.627436 0.000000 0.000000 -5.352452 -0.042044 7.132154 -3.157882 -9.781899 6.939075 -47.254128 32.734173 -1.761487 -37.611027 -42.879425 43.421047 36.902107 -1.564888 28.933664 3.106425 9.640523 6.909121 47.124237 -32.443996 -1.720266 36.786167 42.214279 43.953224 -36.534958 2.210233 28.190533 -17.875677 13.211183 0.181975 66.066841 3.826673 -0.059595 26.260975 -3.502220 0.053180 -17.877531 -13.222903 -0.188240 66.067436 -3.840058 0.052275 26.268555 3.494818 -0.069671 
-18.001394 9.391007 -15.082972 90.000000 0.003709 -179.996292 15.648661 -0.742329 -0.606915 10.373302 -0.643171 -0.505179 -7.747080 0.000000 0.000000 -5.222248 -0.048697 6.958509 -3.290267 -10.560361 6.148039 -46.876530 32.221024 -1.621214 -36.846130 -42.067921 43.927872 36.617294 -1.397790 28.463610 3.242827 10.433039 6.121690 46.760704 -31.959991 -1.586066 36.119125 41.464558 44.389996 -36.288326 1.981211 27.795652 -17.476372 13.196006 0.252579 65.069649 3.693046 -0.117392 26.886971 -3.413754 0.147689 -17.477995 -13.206938 -0.258553 65.070175 -3.705259 0.110425 26.893778 3.406584 -0.162748 
-18.001394 9.346953 -14.851885 90.000000 0.003709 -179.996292 14.981639 -0.742459 -0.607098 11.508684 -0.643064 -0.505254 -6.865031 0.000000 0.000000 -5.092010 -0.054956 6.784831 -3.433992 -11.337165 5.352871 -46.502468 31.707050 -1.485690 -36.100235 -41.251358 44.413975 36.331100 -1.233021 27.992706 3.390723 11.223852 5.330029 46.400383 -31.475254 -1.456161 35.467102 40.710983 44.810310 -36.040131 1.753879 27.399809 -17.077097 13.180352 0.323071 64.072525 3.558407 -0.172854 27.512819 -3.324254 0.241224 -17.078491 -13.190493 -0.328749 64.072990 -3.569439 0.166219 27.518858 3.317333 -0.254855 
-18.001394 9.302899 -14.620798 90.000000 0.003709 -179.996292 14.314600 -0.742591 -0.607279 12.644176 -0.642955 -0.505326 -5.981387 0.000000 0.000000 -4.961741 -0.060821 6.611119 -3.589147 -12.112000 4.553401 -46.131870 31.192327 -1.354833 -35.372585 -40.430149 44.880150 36.043583 -1.070608 27.521011 3.550212 12.012651 4.533963 46.043179 -30.989815 -1.330477 34.829529 39.953857 45.214775 -35.790405 1.528265 27.003027 -16.677864 13.164217 0.393445 63.075588 3.422812 -0.225956 28.138487 -3.233737 0.333769 -16.679041 -13.173580 -0.398821 63.076004 -3.432661 0.219633 28.143749 3.227081 -0.345976 
-18.001394 9.258845 -14.389711 90.000000 0.003709 -179.996292 13.647579 -0.742725 -0.607459 13.779555 -0.642845 -0.505396 -5.096252 0.000000 0.000000 -4.831440 -0.066292 6.437376 -3.755826 -12.884562 3.749460 -45.764637 30.676914 -1.228551 -34.662399 -39.604622 45.327114 35.754745 -0.910571 27.048538 3.721388 12.799119 3.733313 45.688999 -30.503725 -1.208941 34.205853 39.193428 45.603905 -35.539150 1.304391 26.605314 -16.278681 13.147608 0.463696 62.078991 3.286327 -0.276676 28.763927 -3.142219 0.425308 -16.279634 -13.156185 -0.468765 62.079350 -3.294985 0.270643 28.768429 3.135845 -0.436095 
-18.001394 9.214791 -14.158625 90.000000 0.003709 -179.996292 12.980630 -0.742862 -0.607637 14.914601 -0.642734 -0.505463 -4.209726 0.000000 0.000000 -4.701111 -0.071368 6.263605 -3.934122 -13.654543 2.940878 -45.400688 30.160862 -1.106771 -33.968967 -38.775162 45.755596 35.464642 -0.752936 26.575321 3.904352 13.582954 2.927901 45.337803 -30.017038 -1.091489 33.595524 38.429947 45.978237 -35.286381 1.082282 26.206676 -15.879561 13.130523 0.533820 61.082893 3.149014 -0.324993 29.389105 -3.049717 0.515824 -15.880301 -13.138322 -0.538575 61.083195 -3.156478 0.319230 29.392845 3.043643 -0.525196 
